{"title":"The Wicker Man (1973) [x264][AC3-(5.1)]Multi_Sub.mkv","uid":5224548,"size":1584190869,"categoryP":"video","categoryS":"movies","magnet":"?xt=urn:btih:b30bed22caf878777c39a81f4648634ca59d8513&amp;dn=The+Wicker+Man+%281973%29+%5Bx264%5D%5BAC3-%285.1%29%5DMulti_Sub.mkv&amp;tr=udp%3A%2F%2Ftracker.openbittorrent.com%3A80&amp;tr=udp%3A%2F%2Fopen.demonii.com%3A1337&amp;tr=udp%3A%2F%2Ftracker.coppersurfer.tk%3A6969&amp;tr=udp%3A%2F%2Fexodus.desync.com%3A6969","seeders":2,"leechers":0,"uploader":"Zen_Bud","files":-1,"time":1261068546,"description":"General\nComplete name                    : The Wicker Man.mkv\nFormat                           : Matroska\nFile size                        : 1.48 GiB\nDuration                         : 1h 24mn\nOverall bit rate                 : 2 504 Kbps\n\n\nVideo\n\n\nCodec ID                         : V_MPEG4/ISO/AVC\nDuration                         : 1h 24mn\nBit rate                         : 2 001 Kbps\nNominal bit rate                 : 2 034 Kbps\nWidth                            : 718 pixels\nHeight                           : 576 pixels\nDisplay aspect ratio             : 16/9\nFrame rate                       : 25.000 fps\nResolution                       : 24 bits\nColorimetry                      : 4:2:0\nScan type                        : Progressive\nBits/(Pixel*Frame)               : 0.194\nStream size                      : 1.18 GiB (80%)\nWriting library                  : x264 core 79\n\n\nAudio\nID                               : 2\nFormat                           : AC-3\nFormat/Info                      : Audio Coding 3\nCodec ID                         : A_AC3\nDuration                         : 1h 24mn\nBit rate mode                    : Constant\nBit rate                         : 448 Kbps\nChannel(s)                       : 6 channels\nChannel positions                : Front: L C R, Surround: L R, LFE\nSampling rate                    : 48.0 KHz\nStream size                      : 270 MiB (18%)\nLanguage                         : English\n\nText #1\nLanguage                         : Swedish\n\nText #2\nLanguage                         : Italian\n\nText #3\nLanguage                         : Norwegian\n\nText #4\nLanguage                         : Danish\n\nText #5\nLanguage                         : Finnish","torrent":{"xt":"urn:btih:b30bed22caf878777c39a81f4648634ca59d8513","amp;dn":"The+Wicker+Man+%281973%29+%5Bx264%5D%5BAC3-%285.1%29%5DMulti_Sub.mkv","amp;tr":["udp%3A%2F%2Ftracker.openbittorrent.com%3A80","udp%3A%2F%2Fopen.demonii.com%3A1337","udp%3A%2F%2Ftracker.coppersurfer.tk%3A6969","udp%3A%2F%2Fexodus.desync.com%3A6969"],"infoHash":"b30bed22caf878777c39a81f4648634ca59d8513","infoHashBuffer":{"type":"Buffer","data":[179,11,237,34,202,248,120,119,124,57,168,31,70,72,99,76,165,157,133,19]},"announce":[],"urlList":[]}}